<?xml version="1.0" encoding="utf-8"?>
<!-- Generator: Adobe Illustrator 22.0.1, SVG Export Plug-In . SVG Version: 6.00 Build 0)  -->
<svg version="1.1" id="Layer_1" xmlns="http://www.w3.org/2000/svg" xmlns:xlink="http://www.w3.org/1999/xlink" x="0px" y="0px"
	 viewBox="0 0 102.1 90" style="enable-background:new 0 0 102.1 90;" xml:space="preserve">
<style type="text/css">
	.st0{fill:#fe4e64;}
</style>
<g id="XMLID_103_">
	<path id="XMLID_59_" class="st0" d="M0,31.1v58.8h23.9V31.1H0z M16.9,82.9H7V38.2h9.9V82.9z"/>
	<path id="XMLID_31_" class="st0" d="M12.2,27.8c14.5-8.3-1.8-20.6,0-27.8C12.2,0-2.7,14.6,12.2,27.8z"/>
	<path id="XMLID_71_" class="st0" d="M39,31.1v58.8h23.9V31.1H39z M55.9,82.9H46V38.2h9.9V82.9z"/>
	<path id="XMLID_32_" class="st0" d="M51.3,27.8c14.5-8.3-1.8-20.6,0-27.8C51.3,0,36.3,14.6,51.3,27.8z"/>
	<path id="XMLID_75_" class="st0" d="M78.1,31.1v58.8H102V31.1H78.1z M95,82.9h-9.9V38.2H95V82.9z"/>
	<path id="XMLID_67_" class="st0" d="M90.3,27.8c14.5-8.3-1.8-20.6,0-27.8C90.3,0,75.4,14.6,90.3,27.8z"/>
</g>
</svg>
