<?xml version="1.0" encoding="utf-8"?>
<!-- Generator: Adobe Illustrator 22.0.1, SVG Export Plug-In . SVG Version: 6.00 Build 0)  -->
<svg version="1.1" id="Layer_1" xmlns="http://www.w3.org/2000/svg" xmlns:xlink="http://www.w3.org/1999/xlink" x="0px" y="0px"
	 viewBox="0 0 82.1 112.2" style="enable-background:new 0 0 82.1 112.2;" xml:space="preserve">
<style type="text/css">
	.st0{fill:#fe4e64;}
</style>
<path id="XMLID_245_" class="st0" d="M0.5,108.4v3.5h81.2v-3.5c0-26.4-10.8-50.1-26.6-59c1.1-3.8,2.9-7.7,4.6-11.5
	c5.2-11.6,11-24.8-1-35.2l-2.6-2.2L53.8,3C53.7,3.1,48,9.2,41.1,9.2S28.5,3,28.4,3l-2.3-2.5l-2.6,2.2c-12,10.4-6.1,23.5-1,35.2
	c1.7,3.8,3.4,7.7,4.6,11.5C11.3,58.3,0.5,82,0.5,108.4z M7.6,104.9c0-0.8,0.1-1.5,0.1-2.2c0.8,0.5,1.4,1.3,1.7,2.2H7.6z M11.9,104.9
	c0.5-1.7,2-2.9,3.8-2.9s3.3,1.2,3.8,2.9H11.9z M22,104.9c0.5-1.7,2-2.9,3.8-2.9s3.3,1.2,3.8,2.9H22z M32.1,104.9
	c0.5-1.7,2-2.9,3.8-2.9s3.3,1.2,3.8,2.9H32.1z M42.3,104.9c0.5-1.7,2-2.9,3.8-2.9s3.3,1.2,3.8,2.9H42.3z M52.4,104.9
	c0.5-1.7,2-2.9,3.8-2.9s3.3,1.2,3.8,2.9H52.4z M62.6,104.9c0.5-1.7,2-2.9,3.8-2.9s3.3,1.2,3.8,2.9H62.6z M74.5,104.9h-1.8
	c0.3-0.9,0.9-1.7,1.7-2.2C74.5,103.4,74.5,104.1,74.5,104.9z M25.9,10.3c3.1,2.5,8.6,6,15.1,6s12-3.5,15.1-6
	c4.8,6.2,1.9,13.7-3,24.7c-2.2,5-4.5,10.2-5.7,15.5l-0.2,0.8H34.7l-0.2-0.8C33.3,45.2,31,40,28.8,35C24,24,21.1,16.5,25.9,10.3z
	 M32.6,54.5l1-0.4h14.9l1,0.4c13.2,5.8,22.8,24.1,24.8,45.8c-1.1,0.5-2.1,1.2-2.8,2.2c-1.1-1.6-3-2.7-5.1-2.7s-4,1.1-5.1,2.7
	c-1.1-1.6-3-2.7-5.1-2.7s-4,1.1-5.1,2.7c-1.1-1.6-3-2.7-5.1-2.7s-4,1.1-5.1,2.7c-1.1-1.6-3-2.7-5.1-2.7s-4,1.1-5.1,2.7
	c-1.1-1.6-3-2.7-5.1-2.7s-4,1.1-5.1,2.7c-1.1-1.6-3-2.7-5.1-2.7s-4,1.1-5.1,2.7c-0.7-1-1.6-1.8-2.8-2.2
	C9.8,78.6,19.4,60.3,32.6,54.5z"/>
</svg>
