<?xml version="1.0" encoding="utf-8"?>
<!-- Generator: Adobe Illustrator 22.0.1, SVG Export Plug-In . SVG Version: 6.00 Build 0)  -->
<svg version="1.1" id="Layer_1" xmlns="http://www.w3.org/2000/svg" xmlns:xlink="http://www.w3.org/1999/xlink" x="0px" y="0px"
	 viewBox="0 0 115.2 105" style="enable-background:new 0 0 115.2 105;" xml:space="preserve">
<style type="text/css">
	.st0{fill:#fe4e64;}
</style>
<g id="XMLID_179_">
	<path id="XMLID_76_" class="st0" d="M59.3,25c3.1-1,12.2-7.5,14.1-14.3c0.1-0.3,0.2-0.7,0.2-1c0.1-0.5,0.1-0.9,0.1-1.4
		c0-4.4-3.5-7.9-7.9-7.9c-2.8,0-5.2,1.4-6.6,3.6c-1.4-2.2-3.8-3.6-6.6-3.6c-4.4,0-7.9,3.5-7.9,7.9c0,0.5,0,1,0.1,1.4
		c0,0.3,0.1,0.7,0.2,1C47.1,17.5,56.2,24,59.3,25z"/>
	<path id="XMLID_113_" class="st0" d="M2.5,88.5l-2.3,6.6l26.4,9.3l2.3-6.6L19,94.3l6.8-19.2c1.4,0.3,2.8,0.4,4.2,0.4
		c3.1,0,6.3-0.7,9.2-2.1c5.1-2.5,9-6.8,10.9-12.1l4.5-12.9l10.2,19.8c2.4,4.7,6.6,8.2,11.6,9.8c2,0.6,4,1,6.1,1s4.3-0.4,6.3-1
		l8.4,16.3l-8.4,4.3l3.2,6.3L115,93l-3.2-6.3l-8.4,4.3L95,74.7c7.8-5.7,10.5-16.4,6-25.2L86.5,21.3L59.1,35.4l2.2-6.1L20.2,14.9
		L8.9,47C7,52.4,7.3,58.1,9.8,63.2c2,4.2,5.3,7.6,9.4,9.7l-6.8,19.2L2.5,88.5z M83.4,30.7l11.3,21.9c3.3,6.3,0.8,14.1-5.5,17.4
		l-0.9,0.5C82,73.8,74.2,71.3,70.9,65L59.6,43.1L83.4,30.7z M16.1,60c-1.6-3.4-1.9-7.3-0.6-10.9l8.9-25.4l27.8,9.8l-8.9,25.4
		c-2.6,7.4-10.7,11.3-18.1,8.7l-1-0.4C20.6,66,17.7,63.5,16.1,60z"/>
</g>
</svg>
