<?xml version="1.0" encoding="utf-8"?>
<!-- Generator: Adobe Illustrator 22.0.1, SVG Export Plug-In . SVG Version: 6.00 Build 0)  -->
<svg version="1.1" id="Layer_1" xmlns="http://www.w3.org/2000/svg" xmlns:xlink="http://www.w3.org/1999/xlink" x="0px" y="0px"
	 viewBox="0 0 110.7 111.1" style="enable-background:new 0 0 110.7 111.1;" xml:space="preserve">
<style type="text/css">
	.st0{fill:#fe4e64;}
</style>
<g id="XMLID_101_">
	<path id="XMLID_80_" class="st0" d="M54.5,29.9c-7,0.2-13.6,3.1-18.5,8L2.4,71.5c-3.2,3.2-3.2,8.5,0,11.8l25.3,25.3
		c1.6,1.6,3.7,2.4,5.9,2.4c2.1,0,4.3-0.8,5.9-2.4L73.1,75c4.9-4.9,7.8-11.5,8-18.5c0.2-5.2,2.3-10.1,5.9-13.7l12.9-12.9
		c1,0.5,2.1,0.8,3.3,0.8c1.8,0,3.6-0.7,5-2.1l0.2-0.2c2.8-2.8,2.8-7.3,0-10.1L92.7,2.6c-2.8-2.8-7.3-2.8-10.1,0l-0.2,0.2
		c-2.2,2.2-2.7,5.6-1.3,8.3L68.2,24C64.6,27.7,59.7,29.8,54.5,29.9z M87.4,7.8l0.2-0.2c0,0,0,0,0.1,0c0,0,0,0,0.1,0l15.7,15.7v0.1
		l-0.2,0.2h-0.1L87.4,7.8C87.3,7.9,87.3,7.8,87.4,7.8z M85.8,16.3l8.8,8.8L82,37.7l0,0c-4.9,4.9-7.8,11.5-8,18.5
		c-0.2,5.2-2.3,10.1-5.9,13.7l-33.6,33.6c-0.5,0.5-1.3,0.5-1.8,0L7.4,78.2c-0.5-0.5-0.5-1.3,0-1.8L41,42.8c3.7-3.7,8.6-5.8,13.7-5.9
		c7-0.2,13.6-3.1,18.5-8L85.8,16.3z"/>
	<path id="XMLID_83_" class="st0" d="M36.1,54.1L12.7,77.5l20.8,20.8l23.4-23.4L36.1,54.1z M43.2,83.4c-0.2,0.1-0.5,0.3-0.7,0.4
		C37.7,86.5,29.2,85,27,83.9c-1.1-2.2-2.6-10.7,0.1-15.5c0.1-0.2,0.3-0.5,0.4-0.7c0.6-1,1.6-1.7,2.8-2.3c1-0.5,2.1-0.6,3.2-0.3
		c4,1,5.6,4.4,5,7.4c3-0.6,6.4,1,7.4,5c0.3,1.1,0.1,2.2-0.3,3.2C45,81.8,44.2,82.8,43.2,83.4z"/>
</g>
</svg>
