<?xml version="1.0" encoding="utf-8"?>
<!-- Generator: Adobe Illustrator 22.0.1, SVG Export Plug-In . SVG Version: 6.00 Build 0)  -->
<svg version="1.1" id="Layer_1" xmlns="http://www.w3.org/2000/svg" xmlns:xlink="http://www.w3.org/1999/xlink" x="0px" y="0px"
	 viewBox="0 0 108 91.6" style="enable-background:new 0 0 108 91.6;" xml:space="preserve">
<style type="text/css">
	.st0{fill:#fe4e64;}
</style>
<path id="XMLID_209_" class="st0" d="M0.2,49.3c0,20.6,16.7,37.3,37.3,37.3c6.3,0,12.1-1.6,17.3-4.3c5.6,5.7,13.4,9.2,22,9.2
	c17.1,0,31-13.9,31-31c0-15.2-11-27.9-25.5-30.5c1.5-1.5,2.8-3.3,3.3-5.1c0.1-0.2,0.1-0.4,0.2-0.6l0,0l0,0C86,24,86,23.7,86,23.4
	c0-2.7-2.2-5-5-5c-1.7,0-3.3,0.9-4.2,2.2c-0.9-1.4-2.4-2.2-4.2-2.2c-2.7,0-5,2.2-5,5c0,0.3,0,0.6,0.1,0.9l0,0l0,0
	c0,0.2,0.1,0.4,0.2,0.6c0.5,1.8,1.8,3.6,3.3,5.1c-0.6,0.1-1.1,0.2-1.7,0.4c-5.7-9.7-15.7-16.5-27.3-18c1.8-1.6,3.5-3.7,4.1-5.8
	c0.1-0.2,0.1-0.4,0.2-0.6l0,0l0,0c0.1-0.3,0.1-0.6,0.1-0.9c0-2.7-2.2-5-5-5c-1.7,0-3.3,0.9-4.2,2.2c-0.9-1.4-2.4-2.2-4.2-2.2
	c-2.7,0-5,2.2-5,5c0,0.3,0,0.6,0.1,0.9l0,0l0,0c0,0.2,0.1,0.4,0.2,0.6c0.6,2.1,2.3,4.2,4.1,5.8C14.4,14.7,0.2,30.4,0.2,49.3z
	 M74.9,49.3c0-4.3-0.8-8.5-2.1-12.4c1.4-0.2,2.8-0.4,4.2-0.4c13.2,0,24,10.8,24,24s-10.8,24-24,24c-6.1,0-11.8-2.3-16-6.1
	C69.4,71.5,74.9,61,74.9,49.3z M66.1,39.2c1.1,3.2,1.8,6.6,1.8,10.1c0,9.6-4.5,18.1-11.4,23.6C54.3,69.3,53,65,53,60.5
	C52.9,51.2,58.2,43.1,66.1,39.2z M37.6,19c10.6,0,20,5.5,25.4,13.8c-10.1,5.1-17,15.6-17,27.7c0,5.9,1.7,11.4,4.5,16.1
	c-3.9,1.9-8.3,2.9-12.9,2.9c-16.7,0-30.3-13.6-30.3-30.3C7.2,32.6,20.9,19,37.6,19z"/>
</svg>
