<?xml version="1.0" encoding="utf-8"?>
<!-- Generator: Adobe Illustrator 22.0.1, SVG Export Plug-In . SVG Version: 6.00 Build 0)  -->
<svg version="1.1" id="Layer_1" xmlns="http://www.w3.org/2000/svg" xmlns:xlink="http://www.w3.org/1999/xlink" x="0px" y="0px"
	 viewBox="0 0 97.4 97.9" style="enable-background:new 0 0 97.4 97.9;" xml:space="preserve">
<style type="text/css">
	.st0{fill:#fe4e64;}
</style>
<path id="XMLID_259_" class="st0" d="M25.8,28.2v9.3C19.9,38,15.3,43,15.3,49.1v15h-3.6c-6.4,0-11.6,5.2-11.6,11.6v22h97.1v-22
	c0-6.4-5.2-11.6-11.6-11.6H82v-15c0-6-4.6-11-10.5-11.6v-9.3c0-6.4-5.2-11.6-11.6-11.6h-5.4c2.5-2.2,5-5,5.8-8
	c0.1-0.3,0.2-0.6,0.2-0.8c0.1-0.4,0.1-0.8,0.1-1.2c0-3.6-2.9-6.5-6.5-6.5c-2.3,0-4.3,1.2-5.4,2.9c-1.2-1.8-3.2-2.9-5.4-2.9
	c-3.6,0-6.5,2.9-6.5,6.5c0,0.4,0,0.8,0.1,1.2c0,0.2,0.1,0.6,0.2,0.8c0.8,2.9,3.3,5.8,5.8,8h-5.4C31,16.6,25.8,21.8,25.8,28.2z
	 M32.8,35.1c0.1,0,0.1,0,0.2,0c1.4,0,2.5,1,2.8,2.2h-3V35.1z M22.3,61.3c1.4,0.3,2.5,1.4,2.7,2.8h-2.7V61.3z M7.6,90.7
	c0.3-1.7,1.8-3,3.6-3c1.8,0,3.3,1.3,3.6,3H7.6z M16.9,90.7c0.3-1.7,1.8-3,3.6-3c1.8,0,3.3,1.3,3.6,3H16.9z M26.3,90.7
	c0.3-1.7,1.8-3,3.6-3c1.8,0,3.3,1.3,3.6,3H26.3z M35.7,90.7c0.3-1.7,1.8-3,3.6-3c1.8,0,3.3,1.3,3.6,3H35.7z M45,90.7
	c0.3-1.7,1.8-3,3.6-3c1.8,0,3.3,1.3,3.6,3H45z M54.4,90.7c0.3-1.7,1.8-3,3.6-3c1.8,0,3.3,1.3,3.6,3H54.4z M63.7,90.7
	c0.3-1.7,1.8-3,3.6-3c1.8,0,3.3,1.3,3.6,3H63.7z M73.1,90.7c0.3-1.7,1.8-3,3.6-3c1.8,0,3.3,1.3,3.6,3H73.1z M82.4,90.7
	c0.3-1.7,1.8-3,3.6-3c1.8,0,3.3,1.3,3.6,3H82.4z M81.9,71.2h3.6c2.5,0,4.6,2.1,4.6,4.6v11.6c-1-1.1-2.5-1.7-4.1-1.7
	c-1.9,0-3.6,1-4.7,2.4c-1-1.5-2.7-2.4-4.7-2.4s-3.6,1-4.7,2.4c-1-1.5-2.7-2.4-4.7-2.4s-3.6,1-4.7,2.4c-1-1.5-2.7-2.4-4.7-2.4
	s-3.6,1-4.7,2.4c-1-1.5-2.7-2.4-4.7-2.4s-3.6,1-4.7,2.4c-1-1.5-2.7-2.4-4.7-2.4s-3.6,1-4.7,2.4c-1-1.5-2.7-2.4-4.7-2.4
	s-3.6,1-4.7,2.4c-1-1.5-2.7-2.4-4.7-2.4s-3.6,1-4.7,2.4c-1-1.5-2.7-2.4-4.7-2.4c-1.6,0-3,0.7-4.1,1.7V75.8c0-2.5,2.1-4.6,4.6-4.6
	h3.6H81.9z M27.2,64.1c0.3-1.6,1.7-2.9,3.4-2.9c1.7,0,3.1,1.3,3.4,2.9H27.2z M36.2,64.1c0.3-1.6,1.7-2.9,3.4-2.9
	c1.7,0,3.1,1.3,3.4,2.9H36.2z M45.2,64.1c0.3-1.6,1.7-2.9,3.4-2.9c1.7,0,3.1,1.3,3.4,2.9H45.2z M54.2,64.1c0.3-1.6,1.7-2.9,3.4-2.9
	c1.7,0,3.1,1.3,3.4,2.9H54.2z M63.2,64.1c0.3-1.6,1.7-2.9,3.4-2.9c1.7,0,3.1,1.3,3.4,2.9H63.2z M72.2,64.1c0.2-1.4,1.3-2.5,2.7-2.8
	v2.8H72.2z M70.3,44.5c2.5,0,4.6,2.1,4.6,4.6v10c-1.6,0.2-2.9,1-3.8,2.3c-1-1.4-2.6-2.3-4.5-2.3s-3.5,0.9-4.5,2.3
	c-1-1.4-2.6-2.3-4.5-2.3s-3.5,0.9-4.5,2.3c-1-1.4-2.6-2.3-4.5-2.3s-3.5,0.9-4.5,2.3c-1-1.4-2.6-2.3-4.5-2.3s-3.5,0.9-4.5,2.3
	c-1-1.4-2.6-2.3-4.5-2.3c-1.9,0-3.5,0.9-4.5,2.3c-0.9-1.2-2.3-2.1-3.8-2.3v-10c0-2.5,2.1-4.6,4.6-4.6H70.3z M38,37.3
	c0.3-1.3,1.4-2.2,2.8-2.2s2.5,1,2.8,2.2H38z M45.8,37.3c0.3-1.3,1.4-2.2,2.8-2.2s2.5,1,2.8,2.2H45.8z M53.6,37.3
	c0.3-1.3,1.4-2.2,2.8-2.2s2.5,1,2.8,2.2H53.6z M61.4,37.3c0.3-1.3,1.4-2.2,2.8-2.2c0.1,0,0.1,0,0.2,0v2.2H61.4z M59.8,23.6
	c2.5,0,4.6,2.1,4.6,4.6v4.7c-0.1,0-0.1,0-0.2,0c-1.6,0-3,0.7-3.9,1.9c-0.9-1.2-2.3-1.9-3.9-1.9s-3,0.7-3.9,1.9
	c-0.9-1.2-2.3-1.9-3.9-1.9s-3,0.7-3.9,1.9c-0.9-1.2-2.3-1.9-3.9-1.9s-3,0.7-3.9,1.9c-0.9-1.2-2.3-1.9-3.9-1.9c-0.1,0-0.2,0-0.2,0
	v-4.7c0-2.5,2.1-4.6,4.6-4.6H59.8z"/>
</svg>
